<svg width="213" height="24" viewBox="0 0 213 24" fill="none" xmlns="http://www.w3.org/2000/svg">
<g clip-path="url(#clip0_152_677)">
<path d="M112.367 16.0362C112.016 16.0362 111.731 16.3204 111.731 16.6704C111.731 17.0203 112.016 17.3046 112.367 17.3046C112.717 17.3046 113.002 17.0203 113.002 16.6704C113.002 16.3204 112.717 16.0362 112.367 16.0362ZM112.367 17.204C112.071 17.204 111.832 16.964 111.832 16.6704C111.832 16.3754 112.072 16.1368 112.367 16.1368C112.662 16.1368 112.902 16.3768 112.902 16.6704C112.902 16.964 112.662 17.204 112.367 17.204ZM112.573 16.5618C112.573 16.4465 112.491 16.3781 112.371 16.3781H112.168V16.956H112.267V16.7468H112.376L112.481 16.956H112.588L112.473 16.7254C112.534 16.6972 112.573 16.6408 112.573 16.5618ZM112.367 16.657H112.269V16.4653H112.367C112.434 16.4653 112.474 16.4988 112.474 16.5605C112.474 16.6235 112.432 16.657 112.367 16.657ZM35.8313 9.61784V8.08398H33.4759V17.2093H35.8313V11.7377C35.8313 10.7468 36.4679 10.2601 37.4603 10.2601H38.7495V8.08401H37.6483C36.7861 8.08398 36.0368 8.53314 35.8313 9.61784ZM40.9558 4.47461C40.1501 4.47461 39.5323 5.11015 39.5323 5.91462C39.5323 6.70032 40.1501 7.33586 40.9558 7.33586C41.7615 7.33586 42.3793 6.70032 42.3793 5.91462C42.3792 5.11012 41.7615 4.47461 40.9558 4.47461ZM39.7808 17.2094H42.1309V8.08398H39.7808V17.2094ZM53.3251 12.6467C53.3251 15.2518 51.2101 17.3636 48.6008 17.3636C47.548 17.3636 46.5932 17.019 45.8278 16.4371V19.8883H43.4777V8.08398H45.8278V8.85626C46.5932 8.27437 47.548 7.92979 48.6008 7.92979C51.2101 7.92979 53.3251 10.0415 53.3251 12.6467ZM50.9603 12.6467C50.9603 11.2322 49.8108 10.0844 48.3941 10.0844C46.9773 10.0844 45.8278 11.2322 45.8278 12.6467C45.8278 14.0612 46.9773 15.2089 48.3941 15.2089C49.8108 15.2089 50.9603 14.0626 50.9603 12.6467ZM94.1704 11.8462L92.7993 11.4708C91.8969 11.2362 91.5464 10.96 91.5464 10.484C91.5464 10.0201 92.0406 9.69561 92.747 9.69561C93.4198 9.69561 93.9475 10.1354 93.9475 10.6985V10.7508H96.1136V10.6985C96.1136 9.04261 94.7613 7.92975 92.747 7.92975C90.7528 7.92975 89.3038 9.04126 89.3038 10.5738C89.3038 11.7657 90.0948 12.6641 91.4753 13.0368L92.7886 13.3948C93.7863 13.671 94.157 13.9767 94.157 14.5251C94.157 15.103 93.6212 15.4918 92.8235 15.4918C91.9922 15.4918 91.4323 14.9662 91.4323 14.1859V14.1336H89.1333V14.1859C89.1333 16.0576 90.6427 17.3662 92.8048 17.3662C94.8875 17.3662 96.3997 16.0885 96.3997 14.3293C96.3996 13.4659 96.0129 12.337 94.1704 11.8462ZM61.6618 8.08398H64.0118V17.2093H61.6618V16.437C60.8964 17.019 59.9415 17.3635 58.8887 17.3635C56.2795 17.3635 54.1645 15.2518 54.1645 12.6466C54.1645 10.0415 56.2795 7.92975 58.8887 7.92975C59.9415 7.92975 60.8964 8.27433 61.6618 8.85622V8.08398ZM61.6618 12.6467C61.6618 11.2308 60.5123 10.0844 59.0955 10.0844C57.6788 10.0844 56.5293 11.2322 56.5293 12.6467C56.5293 14.0612 57.6788 15.2089 59.0955 15.2089C60.5136 15.2089 61.6618 14.0626 61.6618 12.6467ZM72.4976 4.83661H74.8476V17.2107H72.4976V16.4384C71.7321 17.0203 70.7773 17.3649 69.7245 17.3649C67.1153 17.3649 65.0002 15.2531 65.0002 12.648C65.0002 10.0428 67.1152 7.9311 69.7245 7.9311C70.7773 7.9311 71.7321 8.27568 72.4976 8.85757V4.83661ZM72.4976 12.6467C72.4976 11.2322 71.348 10.0844 69.9313 10.0844C68.5146 10.0844 67.365 11.2322 67.365 12.6467C67.365 14.0612 68.5132 15.2089 69.9313 15.2089C71.348 15.2089 72.4976 14.0626 72.4976 12.6467ZM85.7586 17.2094H88.1086V8.08398H85.7586V17.2094ZM86.9336 4.47461C86.1279 4.47461 85.5101 5.11015 85.5101 5.91462C85.5101 6.70032 86.1279 7.33586 86.9336 7.33586C87.7393 7.33586 88.3571 6.70032 88.3571 5.91462C88.3571 5.11012 87.7393 4.47461 86.9336 4.47461ZM106.557 12.6467C106.557 15.2518 104.442 17.3636 101.833 17.3636C99.2237 17.3636 97.1087 15.2518 97.1087 12.6467C97.1087 10.0415 99.2237 7.92979 101.833 7.92979C104.442 7.92979 106.557 10.0415 106.557 12.6467ZM104.399 12.6467C104.399 11.2322 103.25 10.0844 101.833 10.0844C100.416 10.0844 99.2667 11.2322 99.2667 12.6467C99.2667 14.0612 100.415 15.2089 101.833 15.2089C103.25 15.2089 104.399 14.0626 104.399 12.6467ZM34.6281 4.83661H25.6133V6.92959H28.9504V17.2093H31.2924V6.92959H34.6295V4.83661H34.6281ZM80.2178 14.7101L78.127 8.08401H75.6587L78.7944 17.2094H81.6225L84.7769 8.08401H82.3086L80.2178 14.7101ZM110 9.61784V8.08398H107.645V17.2093H110V11.7377C110 10.7468 110.637 10.2601 111.629 10.2601H112.918V8.08401H111.817C110.955 8.08398 110.207 8.53314 110 9.61784Z" fill="white"/>
<path d="M12.0188 24C18.6567 24 24.0377 18.6274 24.0377 12C24.0377 5.37258 18.6567 0 12.0188 0C5.38102 0 0 5.37258 0 12C0 18.6274 5.38102 24 12.0188 24Z" fill="#34E0A1"/>
<path d="M19.443 9.6588L20.8934 8.08337H17.6771C16.067 6.98525 14.1225 6.3457 12.0196 6.3457C9.91925 6.3457 7.98016 6.98663 6.37271 8.08337H3.14844L4.59876 9.6588C3.70978 10.4686 3.15248 11.6351 3.15248 12.9303C3.15248 15.3746 5.13729 17.3562 7.58538 17.3562C8.74832 17.3562 9.80784 16.9084 10.5988 16.1763L12.0196 17.7209L13.4404 16.1777C14.2313 16.9098 15.2895 17.3562 16.4525 17.3562C18.9005 17.3562 20.888 15.3746 20.888 12.9303C20.8893 11.6338 20.3321 10.4673 19.443 9.6588ZM7.58669 15.9256C5.92955 15.9256 4.5867 14.5849 4.5867 12.9303C4.5867 11.2758 5.92958 9.93499 7.58669 9.93499C9.2438 9.93499 10.5867 11.2758 10.5867 12.9303C10.5867 14.5849 9.2438 15.9256 7.58669 15.9256ZM12.0209 12.8432C12.0209 10.8722 10.5854 9.18014 8.69054 8.45745C9.71516 8.02972 10.8392 7.79241 12.0196 7.79241C13.1999 7.79241 14.3253 8.02972 15.3499 8.45745C13.4565 9.18149 12.0209 10.8722 12.0209 12.8432ZM16.4538 15.9256C14.7967 15.9256 13.4538 14.5849 13.4538 12.9303C13.4538 11.2758 14.7967 9.93499 16.4538 9.93499C18.1109 9.93499 19.4538 11.2758 19.4538 12.9303C19.4538 14.5849 18.1109 15.9256 16.4538 15.9256ZM16.4538 11.3589C15.5849 11.3589 14.8813 12.0615 14.8813 12.929C14.8813 13.7964 15.5849 14.499 16.4538 14.499C17.3226 14.499 18.0263 13.7964 18.0263 12.929C18.0263 12.0628 17.3226 11.3589 16.4538 11.3589ZM9.15921 12.9303C9.15921 13.7978 8.45552 14.5004 7.58669 14.5004C6.71786 14.5004 6.01418 13.7978 6.01418 12.9303C6.01418 12.0628 6.71786 11.3602 7.58669 11.3602C8.45552 11.3589 9.15921 12.0628 9.15921 12.9303Z" fill="black"/>
</g>
<rect x="125" y="4" width="16" height="16" rx="8" fill="#01A468"/>
<rect x="143" y="4" width="16" height="16" rx="8" fill="#01A468"/>
<rect x="161" y="4" width="16" height="16" rx="8" fill="#01A468"/>
<rect x="179" y="4" width="16" height="16" rx="8" fill="#01A468"/>
<rect x="197" y="4" width="16" height="16" rx="8" fill="#01A468"/>
<path d="M204 6H205C208.314 6 211 8.68629 211 12C211 15.3137 208.314 18 205 18H204V6Z" fill="white"/>
<defs>
<clipPath id="clip0_152_677">
<rect width="113" height="24" fill="white"/>
</clipPath>
</defs>
</svg>
